<svg version="1.1" xmlns="http://www.w3.org/2000/svg" width="32" height="32" viewBox="0 0 32 32">
<path fill="#fff" stroke="#fff" stroke-linejoin="miter" stroke-linecap="butt" stroke-miterlimit="22.9256" stroke-width="7300" d="M31.899 16c0 8.781-7.118 15.899-15.899 15.899s-15.899-7.118-15.899-15.899c0-8.781 7.118-15.899 15.899-15.899s15.899 7.118 15.899 15.899z"></path>
<path fill="#000" d="M2.832 16v3.949h11.586l1.541-1.935 1.554-1.935 0.079 3.869h11.575v-7.9h-11.575l-0.079 3.872-1.554-1.935-1.541-1.937h-11.586v3.951zM8.297 14.473l0.328 0.222-0.29 0.383c-0.263 0.369-0.301 0.38-0.577 0.197-0.435-0.29-0.804-0.249-1.174 0.131-0.394 0.397-0.408 0.711-0.052 1.171 0.315 0.397 1.171 0.501 1.171 0.145 0-0.118-0.118-0.197-0.328-0.197-0.29 0-0.328-0.052-0.328-0.46v-0.473l1.645 0.077v0.777c0 0.687-0.038 0.805-0.342 1.043-0.815 0.605-2.252 0.367-2.753-0.462-0.632-1.054-0.131-2.463 0.988-2.777 0.449-0.131 1.357 0 1.713 0.224v0zM11.997 14.366c1.316 0.618 1.423 2.356 0.197 3.174-0.867 0.58-2.173 0.276-2.674-0.632-0.342-0.608-0.263-1.582 0.172-2.055 0.632-0.67 1.5-0.867 2.304-0.487v0zM22.187 15.934v1.776h-0.919v-3.555h0.919v1.779zM26.139 14.618c0 0.446-0.014 0.46-0.525 0.46h-0.528v2.632h-0.922v-2.632h-0.525c-0.514 0-0.528-0.014-0.528-0.46v-0.462h3.029v0.462z"></path>
<path fill="#000" d="M10.601 15.341c-0.566 0.566-0.197 1.582 0.566 1.582 0.829 0 1.185-1.054 0.539-1.568-0.435-0.342-0.763-0.356-1.106-0.014z"></path>
</svg>
